<?xml version="1.0" standalone="no"?>
<!DOCTYPE svg PUBLIC "-//W3C//DTD SVG 20010904//EN"
 "http://www.w3.org/TR/2001/REC-SVG-20010904/DTD/svg10.dtd">
<svg version="1.0" xmlns="http://www.w3.org/2000/svg"
 width="512.000000pt" height="512.000000pt" viewBox="0 0 512.000000 512.000000"
 preserveAspectRatio="xMidYMid meet">
<metadata>
Created by potrace 1.16, written by Peter Selinger 2001-2019
</metadata>
<g transform="translate(0.000000,512.000000) scale(0.100000,-0.100000)"
fill="#000000" stroke="none">
<path d="M552 4620 c-48 -29 -72 -75 -72 -138 0 -29 5 -63 11 -75 6 -12 241
-253 523 -534 l511 -513 -310 0 c-292 0 -312 -1 -343 -20 -48 -30 -72 -75 -72
-140 0 -65 24 -110 72 -140 32 -19 52 -20 568 -20 516 0 536 1 568 20 18 11
41 34 52 52 19 32 20 52 20 568 0 516 -1 536 -20 568 -30 48 -75 72 -140 72
-65 0 -110 -24 -140 -72 -19 -31 -20 -51 -20 -343 l0 -310 -512 511 c-282 282
-523 517 -535 523 -36 18 -124 13 -161 -9z"/>
<path d="M4405 4629 c-11 -6 -251 -241 -532 -523 l-513 -511 0 310 c0 292 -1
312 -20 343 -30 48 -75 72 -140 72 -65 0 -110 -24 -140 -72 -19 -32 -20 -52
-20 -568 0 -516 1 -536 20 -568 11 -18 34 -41 52 -52 32 -19 52 -20 568 -20
516 0 536 1 568 20 48 30 72 75 72 140 0 65 -24 110 -72 140 -31 19 -51 20
-343 20 l-310 0 511 513 c282 281 517 522 523 534 6 12 11 46 11 75 0 98 -61
158 -160 158 -30 0 -64 -5 -75 -11z"/>
<path d="M872 2060 c-48 -30 -72 -75 -72 -140 0 -65 24 -110 72 -140 31 -19
51 -20 343 -20 l310 0 -511 -512 c-282 -282 -517 -523 -523 -535 -6 -12 -11
-46 -11 -75 0 -97 61 -158 158 -158 29 0 63 5 75 11 12 6 253 241 535 523
l512 511 0 -310 c0 -292 1 -312 20 -343 30 -48 75 -72 140 -72 65 0 110 24
140 72 19 32 20 52 20 568 0 516 -1 536 -20 568 -11 18 -34 41 -52 52 -32 19
-52 20 -568 20 -516 0 -536 -1 -568 -20z"/>
<path d="M3112 2060 c-18 -11 -41 -34 -52 -52 -19 -32 -20 -52 -20 -568 0
-516 1 -536 20 -568 30 -48 75 -72 140 -72 65 0 110 24 140 72 19 31 20 51 20
343 l0 310 513 -511 c281 -282 522 -517 534 -523 12 -6 46 -11 75 -11 97 0
158 61 158 158 0 29 -5 63 -11 75 -6 12 -241 253 -523 535 l-511 512 310 0
c292 0 312 1 343 20 48 30 72 75 72 140 0 65 -24 110 -72 140 -32 19 -52 20
-568 20 -516 0 -536 -1 -568 -20z"/>
</g>
</svg>
